<svg xmlns="http://www.w3.org/2000/svg" viewBox="0 0 24 24">
  <defs>
    <linearGradient id="g" x1="0" y1="0" x2="24" y2="24" gradientUnits="userSpaceOnUse">
      <stop offset="0%" stop-color="#eee"/>
      <stop offset="100%" stop-color="#999"/>
    </linearGradient>
  </defs>
  <path d="M12 2C6.48 2 2 6.48 2 12s4.48 10 10 10 10-4.48 10-10S17.52 2 12 2zM4 12c0-.34.03-.67.08-1h3.03c-.04.33-.07.66-.07 1s.03.67.07 1H4.08c-.05-.33-.08-.66-.08-1zm.62 2h2.95c.24.71.57 1.39.99 2H6.13c-.66-.6-1.19-1.28-1.51-2zm0-4c.32-.72.85-1.4 1.51-2h2.49c-.42.61-.75 1.29-.99 2H4.62zM12 20c-1.1 0-2.28-.47-3.29-1.26.62-.75 1.11-1.62 1.47-2.59h3.64c.36.97.85 1.84 1.47 2.59C14.28 19.53 13.1 20 12 20zm-1.62-5.85c-.15-.69-.26-1.41-.28-2.15h3.8c-.02.74-.13 1.46-.28 2.15h-3.24zm-.42-5.85c.36-.97.85-1.84 1.47-2.59C14.28 4.47 15.46 5 16.57 6.26c-.62.75-1.11 1.62-1.47 2.59h-3.14zM12 4c1.1 0 2.28.47 3.29 1.26-.62.75-1.11 1.62-1.47 2.59h-3.64c-.36-.97-.85-1.84-1.47-2.59C9.72 4.47 10.9 4 12 4zm3.29 1.26c.66.6 1.19 1.28 1.51 2h-2.95c-.23-.71-.56-1.39-.98-2h2.42zm2.51 3.74c.33.65.57 1.33.76 2h-3.03c.08-.69.16-1.39.24-2h2.03zm.24 4h-3.03c-.08.69-.16 1.39-.24 2h2.03c-.19.67-.43 1.35-.76 2h-2.03c.42-.61.75-1.29.98-2zm-.99 4h-2.49c.42-.61.75-1.29.99-2h2.95c-.32.72-.85 1.4-1.51 2zm-9.03-2h-2.49c-.66-.6-1.19-1.28-1.51-2h2.95c.24.71.57 1.39.99 2z" fill="url(#g)"/>
</svg>
